<svg width="275" height="411" xmlns="http://www.w3.org/2000/svg" xmlns:xlink="http://www.w3.org/1999/xlink" overflow="hidden"><defs><clipPath id="clip0"><path d="M503 187 778 187 778 598 503 598Z" fill-rule="evenodd" clip-rule="evenodd"/></clipPath><clipPath id="clip1"><path d="M503 187 777 187 777 597 503 597Z" fill-rule="evenodd" clip-rule="evenodd"/></clipPath><clipPath id="clip2"><path d="M503 187 777 187 777 597 503 597Z" fill-rule="evenodd" clip-rule="evenodd"/></clipPath><linearGradient x1="616.924" y1="186.075" x2="616.924" y2="-490.56" gradientUnits="userSpaceOnUse" spreadMethod="pad" id="fill3"><stop offset="0" stop-color="#F7F7F7"/><stop offset="1" stop-color="#F2F2F2"/></linearGradient></defs><g clip-path="url(#clip0)" transform="translate(-503 -187)"><g clip-path="url(#clip1)"><g clip-path="url(#clip2)"><path d="M0-490.56 1202.91-490.56 1202.91 186.075 0 186.075Z" fill="url(#fill3)" transform="matrix(1.00122 0 -0 1 490.965 544.256)"/><path d="M1372.39 732.077C1366.24 755.146 1345.9 769.877 1326.98 764.977 1322.67 763.861 1319.15 761.236 1315.39 758.998 1307.88 754.521 1302.64 746.869 1301.28 736.885 1297.07 707.808 1322.87 672.449 1349.06 681.65 1367.93 686.767 1378.55 709.011 1372.39 732.077Z" fill="#2B2B2B" transform="matrix(1.00122 0 -0 1 -488.784 -270.033)"/><path d="M1480.34 730.513C1486.5 753.904 1506.83 768.844 1525.75 763.884 1530.06 762.753 1533.59 760.084 1537.34 757.823 1544.86 753.279 1550.86 742.546 1551.32 733.088 1552.2 715.186 1544.2 693.747 1529.55 683.918 1521.74 678.675 1511.96 678.493 1502.86 681.739 1483.99 686.929 1474.19 707.119 1480.34 730.513Z" fill="#2B2B2B" transform="matrix(1.00122 0 -0 1 -488.784 -270.033)"/><path d="M1536.88 747.382C1533.57 813.209 1484.92 853.856 1423.75 855.455 1359.33 857.135 1310.53 802.359 1315.58 734.748 1319.37 684.186 1366.6 637.745 1425.66 637.208 1483.49 636.683 1540.22 680.859 1536.88 747.382Z" fill="#656565" transform="matrix(1.00122 0 -0 1 -488.784 -270.033)"/><path d="M1515.88 746.036C1515.88 784.64 1475.7 815.934 1426.13 815.934 1376.56 815.934 1336.38 784.64 1336.38 746.036 1336.38 707.433 1376.56 676.139 1426.13 676.139 1475.7 676.139 1515.88 707.433 1515.88 746.036Z" fill="#A0A0A0" transform="matrix(1.00122 0 -0 1 -488.784 -270.033)"/><path d="M1507.09 745.85C1507.09 780.545 1470.84 808.67 1426.13 808.67 1381.41 808.67 1345.17 780.545 1345.17 745.85 1345.17 711.156 1381.41 683.031 1426.13 683.031 1470.84 683.031 1507.09 711.156 1507.09 745.85Z" fill="#2B2B2B" transform="matrix(1.00122 0 -0 1 -488.784 -270.033)"/><path d="M1430.75 588.805C1431.9 588.805 1432.82 589.732 1432.82 590.875L1432.82 619.091C1432.82 620.235 1431.9 621.162 1430.75 621.162L1428.67 621.162C1427.52 621.162 1426.6 620.235 1426.6 619.091L1426.6 590.875C1426.6 589.732 1427.52 588.805 1428.67 588.805Z" fill="#2B2B2B" transform="matrix(1.00122 0 -0 1 -488.784 -270.033)"/><path d="M1407.49 626.96 1451.1 628.061C1454.13 628.138 1462.48 630.138 1462.64 634.482L1462.88 640.793C1463 643.791 1460.46 646.209 1457.46 646.209L1400.6 646.209C1397.6 646.209 1395.21 643.793 1395.18 640.793L1395.14 633.094C1395.1 627.99 1404.47 626.884 1407.49 626.96Z" fill="#2B2B2B" transform="matrix(1.00122 0 -0 1 -488.784 -270.033)"/><path d="M1417.69 619.592C1420.52 619.371 1423.7 619.333 1426.9 619.337 1429.9 619.342 1432.81 619.488 1435.35 619.661 1437.3 619.793 1439.33 619.964 1440.6 620.217 1445.26 621.15 1449.44 622.026 1451.26 627.992 1451.26 630.392 1447.37 632.994 1444.97 632.994L1413.52 632.994C1411.12 632.994 1411.31 629.792 1409.19 628.662L1407.77 627.903C1407.16 627.579 1407.86 626.168 1409.25 624.398 1410.02 623.427 1410.9 622.159 1412.1 621.344 1413.67 620.285 1415.71 619.746 1417.69 619.592Z" fill="#2B2B2B" transform="matrix(1.00122 0 -0 1 -488.784 -270.033)"/><path d="M1439.68 580.928C1439.62 586.551 1434.78 591.459 1429.93 591.444 1425.23 591.43 1420.39 586.814 1420.55 580.999 1420.7 575.394 1424.8 570.797 1430.02 570.797 1435.4 570.797 1439.72 575.336 1439.68 580.928Z" fill="#2B2B2B" transform="matrix(1.00122 0 -0 1 -488.784 -270.033)"/><path d="M1445.23 535.123C1449.86 534.029 1452.41 535.5 1456.16 537.532 1462.24 540.822 1468.46 545.866 1473.27 552.134 1476.92 556.891 1479.79 562.344 1481.62 567.136 1485.36 576.915 1486.24 590.436 1483.28 601.072 1481.78 606.496 1479.71 611.735 1475.64 614.177 1471.65 616.139 1468.16 615.62 1465.57 614.267 1463.69 613.289 1462.37 612.022 1461.23 610.235 1460.08 608.436 1459.67 605.42 1459.99 603.407 1460.33 601.168 1461.47 599.285 1462.33 596.825 1463.52 593.432 1464.34 589.738 1464.19 586.468 1463.95 581.445 1463.23 577.676 1460.85 571.754 1458.86 566.786 1453.7 560.82 1448.7 557.682 1443.12 554.178 1438.33 553.367 1437.53 546.105 1437.02 541.549 1440.14 536.328 1445.23 535.123Z" fill="#A0A0A0" transform="matrix(1.00122 0 -0 1 -488.784 -270.033)"/><path d="M1408.81 532.442C1404.18 531.348 1401.64 532.82 1397.88 534.852 1391.8 538.141 1385.58 543.186 1380.77 549.453 1377.11 554.211 1374.25 559.664 1372.41 564.456 1368.68 574.234 1367.8 587.755 1370.76 598.391 1372.26 603.815 1374.33 609.054 1378.41 611.497 1382.39 613.459 1385.87 612.939 1388.47 611.586 1390.35 610.608 1391.67 609.342 1392.81 607.554 1393.96 605.756 1394.37 602.74 1394.05 600.726 1393.7 598.487 1392.57 596.604 1391.7 594.145 1390.52 590.751 1389.7 587.058 1389.86 583.787 1390.09 578.765 1390.81 574.995 1393.18 569.074 1395.18 564.105 1400.34 558.14 1405.34 555.001 1410.93 551.498 1415.71 550.687 1416.51 543.425 1417.02 538.868 1413.9 533.648 1408.81 532.442Z" fill="#A0A0A0" transform="matrix(1.00122 0 -0 1 -488.784 -270.033)"/><path d="M1389.58 500.498C1387.37 500.96 1384.65 502.48 1382.27 503.617 1370.32 509.326 1357.63 521.584 1352.39 528.853 1346.77 536.926 1342.3 544.508 1339.07 553.852 1337.81 557.498 1336.18 563.427 1335.65 567.227 1334.41 576.07 1333.69 581.977 1334.24 589.832 1334.82 598.365 1337.14 607.38 1339.43 613.482 1340.74 616.976 1341.58 620.671 1343.95 623.416 1346.57 626.445 1350.9 628.265 1356.3 626.203 1359.1 624.664 1361.86 621.774 1362.27 618.481 1362.83 613.948 1360.89 610.69 1359.28 606.871 1357.65 602.992 1356.35 598.556 1356 594.388 1355.07 583.213 1354.89 571.325 1358.96 560.877 1361.97 553.151 1365.82 545.472 1371.34 539.113 1375.43 534.418 1380.27 530.27 1385.32 526.593 1389.18 523.79 1394.14 521.654 1397.69 519.407 1399.16 518.48 1399.75 517.348 1400.47 516.334 1402.03 514.149 1402.9 509.567 1400.23 505.074 1398.23 501.735 1393.99 499.581 1389.58 500.498Z" fill="#A0A0A0" transform="matrix(1.00122 0 -0 1 -488.784 -270.033)"/><path d="M1464.32 503.477C1466.54 503.939 1469.26 505.459 1471.64 506.596 1483.58 512.304 1496.27 524.563 1501.52 531.831 1507.14 539.904 1511.6 547.486 1514.84 556.83 1516.09 560.477 1517.72 566.405 1518.26 570.205 1519.5 579.048 1520.21 584.955 1519.67 592.811 1519.08 601.344 1516.76 610.359 1514.47 616.46 1513.16 619.955 1512.33 623.65 1509.96 626.394 1507.34 629.424 1503 631.243 1497.61 629.182 1494.8 627.643 1492.04 624.753 1491.63 621.46 1491.08 616.927 1493.02 613.668 1494.62 609.85 1496.25 605.97 1497.55 601.534 1497.9 597.367 1498.83 586.191 1499.02 574.304 1494.94 563.856 1491.93 556.129 1488.09 548.451 1482.56 542.092 1478.48 537.396 1473.64 533.248 1468.58 529.571 1464.72 526.769 1459.77 524.633 1456.21 522.385 1454.75 521.458 1454.15 520.326 1453.43 519.312 1451.87 517.127 1451 512.546 1453.68 508.052 1455.68 504.714 1459.92 502.559 1464.32 503.477Z" fill="#A0A0A0" transform="matrix(1.00122 0 -0 1 -488.784 -270.033)"/><path d="M1373.8 469.182C1362.29 474.322 1350.33 481.569 1342.07 489.27 1327.81 502.097 1321.88 511.105 1314.52 523.879 1309.2 533.107 1305.64 543.349 1302.84 553.629 1301.15 559.843 1300.11 568.073 1299.83 572.709 1299.17 583.497 1299.13 590.556 1300.29 599.969 1301.55 610.194 1303.84 619.299 1306.72 626.418 1308.37 630.494 1309.53 634.862 1312.23 637.926 1315.23 641.307 1319.94 643.053 1325.5 640.01 1328.35 637.866 1330.64 635.181 1330.83 631.169 1330.44 626.838 1328.19 623.107 1326.7 619.205 1324.66 613.823 1322.07 605.186 1321.33 597.9 1320.8 592.668 1320.18 587.41 1320.26 582.114 1320.36 575.115 1321.4 568.085 1322.95 561.308 1325.16 551.592 1329.11 541.577 1332.75 533.749 1339.34 519.581 1351.38 507.79 1363.86 498.687 1372.94 490.948 1394.42 488.96 1385.86 473.125 1383.5 469.307 1378.39 467.621 1373.8 469.182Z" fill="#A0A0A0" transform="matrix(1.00122 0 -0 1 -488.784 -270.033)"/><path d="M1480.37 472.245C1491.87 477.386 1503.84 484.633 1512.09 492.333 1526.35 505.161 1532.27 514.169 1539.64 526.942 1544.97 536.17 1548.53 546.412 1551.32 556.692 1553.01 562.906 1554.05 571.136 1554.34 575.773 1554.99 586.56 1555.03 593.62 1553.88 603.032 1552.61 613.257 1550.31 622.362 1547.44 629.481 1545.79 633.557 1544.64 637.926 1541.93 640.99 1538.94 644.371 1534.21 646.116 1528.66 643.073 1525.81 640.93 1523.51 638.244 1523.33 634.232 1523.72 629.902 1525.97 626.17 1527.45 622.268 1529.51 616.887 1532.09 608.25 1532.83 600.963 1533.37 595.731 1533.98 590.474 1533.9 585.178 1533.81 578.179 1532.76 571.148 1531.22 564.372 1529 554.655 1525.05 544.641 1521.42 536.812 1514.82 522.645 1502.78 510.854 1490.3 501.751 1481.22 494.011 1459.74 492.023 1468.31 476.189 1470.66 472.371 1475.78 470.685 1480.37 472.245Z" fill="#A0A0A0" transform="matrix(1.00122 0 -0 1 -488.784 -270.033)"/><path d="M490.827-50.4102C496.511-50.4102 501.12-44.8206 501.12-37.9255L501.12-21.7217C501.12-14.8267 496.512-9.23713 490.827-9.23713L490.827-9.23713C485.142-9.23713 480.533-14.8267 480.533-21.7217L480.533-37.9255C480.533-44.8206 485.142-50.4102 490.827-50.4102Z" fill="#E1E1E1" transform="matrix(1.00122 0 -0 1 477.006 505.643)"/><path d="M432.21-50.4102C437.895-50.4102 442.503-44.8206 442.503-37.9255L442.503-21.7217C442.503-14.8267 437.895-9.23713 432.21-9.23713L432.21-9.23713C426.525-9.23713 421.917-14.8267 421.917-21.7217L421.917-37.9255C421.917-44.8206 426.525-50.4102 432.21-50.4102Z" fill="#E1E1E1" transform="matrix(1.00122 0 -0 1 477.006 505.643)"/><path d="M1784.23 616.727C1794.03 616.727 1801.97 624.669 1801.97 634.465L1801.97 692.927C1801.97 702.724 1794.03 710.665 1784.23 710.665L1738.76 710.665C1728.96 710.665 1721.02 702.724 1721.02 692.927L1721.02 634.465C1721.02 624.669 1728.96 616.727 1738.76 616.727Z" fill="#2B2B2B" transform="matrix(1.00122 0 -0 1 -1039.43 -216.395)"/><path d="M1612.77 616.727C1622.57 616.727 1630.51 624.669 1630.51 634.465L1630.51 692.927C1630.51 702.724 1622.57 710.665 1612.77 710.665L1567.3 710.665C1557.5 710.665 1549.56 702.724 1549.56 692.927L1549.56 634.465C1549.56 624.669 1557.5 616.727 1567.3 616.727Z" fill="#2B2B2B" transform="matrix(1.00122 0 -0 1 -1039.43 -216.395)"/><path d="M1720.55 570.975C1728.36 570.975 1734.68 577.302 1734.68 585.108L1734.68 585.108C1734.68 592.913 1728.35 599.241 1720.55 599.241L1630.81 599.241C1623 599.241 1616.67 592.913 1616.67 585.108L1616.67 585.108C1616.67 577.302 1623 570.975 1630.81 570.975Z" fill="#2B2B2B" transform="matrix(1.00122 0 -0 1 -1039.43 -216.395)"/><path d="M1766.08 587.746C1775.21 587.746 1782.61 595.145 1782.61 604.272L1782.61 789.078C1782.61 798.205 1775.21 805.604 1766.08 805.604L1585.27 805.604C1576.15 805.604 1568.75 798.205 1568.75 789.078L1568.75 604.272C1568.75 595.145 1576.14 587.746 1585.27 587.746Z" fill="#656565" transform="matrix(1.00122 0 -0 1 -1039.43 -216.395)"/><path d="M1751.45 607.341C1758.94 607.341 1765.01 613.409 1765.01 620.894L1765.01 772.455C1765.01 779.94 1758.94 786.008 1751.45 786.008L1599.89 786.008C1592.41 786.008 1586.34 779.94 1586.34 772.455L1586.34 620.894C1586.34 613.409 1592.41 607.341 1599.89 607.341Z" fill="#A0A0A0" transform="matrix(1.00122 0 -0 1 -1039.43 -216.395)"/><path d="M1747.73 611.73C1754.85 611.73 1760.62 617.499 1760.62 624.617L1760.62 768.732C1760.62 775.849 1754.85 781.619 1747.73 781.619L1603.62 781.619C1596.5 781.619 1590.73 775.849 1590.73 768.732L1590.73 624.617C1590.73 617.499 1596.5 611.73 1603.62 611.73Z" fill="#2B2B2B" transform="matrix(1.00122 0 -0 1 -1039.43 -216.395)"/><path d="M1649.14 641.409C1651.4 641.409 1653.23 643.243 1653.23 645.505L1653.23 691.312C1653.23 693.574 1651.4 695.408 1649.14 695.408L1625.24 695.408C1622.97 695.408 1621.14 693.574 1621.14 691.312L1621.14 645.505C1621.14 643.243 1622.97 641.409 1625.24 641.409Z" fill="#E1E1E1" transform="matrix(1.00122 0 -0 1 -1039.43 -216.395)"/><path d="M1726.11 641.409C1728.37 641.409 1730.2 643.243 1730.2 645.505L1730.2 691.312C1730.2 693.574 1728.37 695.408 1726.11 695.408L1702.21 695.408C1699.94 695.408 1698.11 693.574 1698.11 691.312L1698.11 645.505C1698.11 643.243 1699.94 641.409 1702.21 641.409Z" fill="#E1E1E1" transform="matrix(1.00122 0 -0 1 -1039.43 -216.395)"/><path d="M1733.75 732.282C1738.1 732.282 1741.63 735.812 1741.63 740.166L1741.63 740.388C1741.63 744.742 1738.1 748.271 1733.75 748.271L1617.6 748.271C1613.24 748.271 1609.72 744.742 1609.72 740.388L1609.72 740.166C1609.72 735.812 1613.24 732.282 1617.6 732.282Z" fill="#E1E1E1" transform="matrix(1.00122 0 -0 1 -1039.43 -216.395)"/><path d="M1708.65 559.482C1714.38 559.482 1719.03 564.132 1719.03 569.867L1719.03 569.867C1719.03 575.603 1714.38 580.253 1708.65 580.253L1642.7 580.253C1636.97 580.253 1632.32 575.603 1632.32 569.867L1632.32 569.867C1632.32 564.132 1636.97 559.482 1642.7 559.482Z" fill="#2B2B2B" transform="matrix(1.00122 0 -0 1 -1039.43 -216.395)"/><path d="M1675.31 511.974C1676.89 511.974 1678.18 513.599 1678.18 515.604L1678.18 565.053C1678.18 567.057 1676.89 568.682 1675.31 568.682L1675.31 568.682C1673.72 568.682 1672.43 567.058 1672.43 565.053L1672.43 515.604C1672.43 513.599 1673.72 511.974 1675.31 511.974Z" fill="#2B2B2B" transform="matrix(1.00122 0 -0 1 -1039.43 -216.395)"/><path d="M1684.5 506.12C1684.45 511.309 1679.98 515.837 1675.51 515.823 1671.18 515.81 1666.71 511.551 1666.85 506.186 1666.99 501.014 1670.77 496.773 1675.58 496.773 1680.56 496.773 1684.54 500.961 1684.5 506.12Z" fill="#2B2B2B" transform="matrix(1.00122 0 -0 1 -1039.43 -216.395)"/><path d="M4618.5 178.852C4622.38 177.926 4624.54 179.171 4627.72 180.891 4632.88 183.676 4638.14 187.945 4642.2 193.249 4645.28 197.276 4647.71 201.892 4649.3 205.947 4652.43 214.224 4653.18 225.669 4650.67 234.671 4649.43 239.262 4647.67 243.697 4644.23 245.764 4640.83 247.425 4637.87 246.985 4635.71 245.84 4634.12 245.012 4632.97 243.94 4632 242.427 4631.03 240.904 4630.72 238.352 4630.99 236.648 4631.25 234.753 4632.22 233.159 4632.97 231.077 4633.94 228.205 4634.65 225.078 4634.52 222.31 4634.34 218.059 4633.72 214.869 4631.69 209.856 4630.02 205.651 4625.65 200.602 4621.41 197.945 4616.69 194.98 4612.63 194.294 4611.97 188.147 4611.53 184.29 4614.17 179.872 4618.5 178.852Z" fill="#A0A0A0" transform="matrix(1.00122 0 -0 1 -3970.46 72.2762)"/><path d="M4587.65 176.583C4583.72 175.657 4581.56 176.902 4578.38 178.622 4573.26 181.407 4568.01 185.676 4563.91 190.981 4560.82 195.008 4558.39 199.623 4556.85 203.679 4553.67 211.955 4552.97 223.4 4555.44 232.402 4556.72 236.993 4558.48 241.428 4561.92 243.495 4565.28 245.156 4568.23 244.716 4570.44 243.571 4572.03 242.743 4573.13 241.671 4574.1 240.158 4575.07 238.636 4575.43 236.083 4575.16 234.379 4574.85 232.484 4573.88 230.89 4573.18 228.808 4572.16 225.936 4571.5 222.809 4571.63 220.042 4571.81 215.79 4572.43 212.6 4574.41 207.588 4576.13 203.383 4580.5 198.333 4584.69 195.677 4589.46 192.711 4593.48 192.024 4594.18 185.878 4594.58 182.022 4591.98 177.603 4587.65 176.583Z" fill="#A0A0A0" transform="matrix(1.00122 0 -0 1 -3970.46 72.2762)"/><path d="M4571.37 149.545C4569.51 149.936 4567.22 151.223 4565.19 152.185 4555.08 157.016 4544.32 167.393 4539.9 173.544 4535.14 180.377 4531.34 186.795 4528.6 194.704 4527.55 197.79 4526.18 202.808 4525.74 206.025 4524.68 213.509 4524.06 218.509 4524.55 225.158 4525.03 232.381 4526.97 240.011 4528.91 245.175 4530.06 248.133 4530.72 251.26 4532.75 253.584 4534.96 256.148 4538.62 257.687 4543.21 255.943 4545.6 254.64 4547.93 252.194 4548.24 249.406 4548.73 245.57 4547.1 242.812 4545.73 239.58 4544.36 236.296 4543.26 232.542 4542.95 229.014 4542.15 219.555 4542.02 209.493 4545.46 200.65 4548.02 194.11 4551.24 187.611 4555.92 182.229 4559.41 178.255 4563.51 174.744 4567.79 171.632 4571.06 169.26 4575.25 167.452 4578.25 165.55 4579.49 164.765 4579.97 163.806 4580.59 162.948 4581.91 161.099 4582.66 157.221 4580.37 153.417 4578.69 150.592 4575.12 148.768 4571.37 149.545Z" fill="#A0A0A0" transform="matrix(1.00122 0 -0 1 -3970.46 72.2762)"/><path d="M4634.65 152.066C4636.5 152.457 4638.8 153.744 4640.83 154.706 4650.93 159.537 4661.7 169.914 4666.11 176.065 4670.88 182.898 4674.68 189.316 4677.41 197.225 4678.47 200.311 4679.84 205.329 4680.28 208.546 4681.34 216.031 4681.96 221.031 4681.47 227.679 4680.99 234.902 4679.04 242.531 4677.1 247.696 4676 250.654 4675.29 253.781 4673.26 256.105 4671.06 258.668 4667.39 260.209 4662.8 258.464 4660.42 257.161 4658.08 254.715 4657.77 251.928 4657.29 248.091 4658.92 245.333 4660.29 242.101 4661.66 238.817 4662.76 235.063 4663.07 231.535 4663.86 222.076 4664 212.014 4660.55 203.171 4657.99 196.632 4654.77 190.133 4650.09 184.75 4646.61 180.776 4642.5 177.265 4638.22 174.153 4634.96 171.781 4630.77 169.973 4627.77 168.071 4626.53 167.286 4626.04 166.328 4625.43 165.469 4624.1 163.62 4623.35 159.742 4625.65 155.939 4627.32 153.113 4630.9 151.289 4634.65 152.066Z" fill="#A0A0A0" transform="matrix(1.00122 0 -0 1 -3970.46 72.2762)"/><path d="M4558.04 123.038C4548.29 127.389 4538.14 133.524 4531.17 140.041 4519.07 150.899 4514.09 158.523 4507.86 169.335 4503.32 177.145 4500.32 185.814 4497.98 194.515 4496.52 199.775 4495.64 206.741 4495.42 210.665 4494.85 219.796 4494.8 225.771 4495.82 233.737 4496.88 242.392 4498.82 250.098 4501.24 256.124 4502.66 259.574 4503.63 263.272 4505.92 265.865 4508.44 268.727 4512.45 270.204 4517.13 267.629 4519.56 265.814 4521.5 263.541 4521.63 260.145 4521.32 256.48 4519.43 253.322 4518.15 250.019 4516.42 245.464 4514.22 238.154 4513.6 231.986 4513.16 227.558 4512.63 223.108 4512.72 218.625 4512.81 212.701 4513.69 206.751 4514.97 201.015 4516.87 192.791 4520.18 184.314 4523.26 177.688 4528.87 165.697 4539.06 155.717 4549.61 148.012 4557.29 141.461 4575.47 139.779 4568.23 126.376 4566.25 123.144 4561.92 121.718 4558.04 123.038Z" fill="#A0A0A0" transform="matrix(1.00122 0 -0 1 -3970.46 72.2762)"/><path d="M4648.2 125.632C4657.95 129.982 4668.1 136.116 4675.07 142.634 4687.16 153.492 4692.15 161.116 4698.37 171.928 4702.92 179.738 4705.92 188.407 4708.26 197.108 4709.71 202.368 4710.6 209.334 4710.82 213.258 4711.39 222.389 4711.44 228.364 4710.42 236.33 4709.36 244.985 4707.42 252.691 4704.99 258.717 4703.58 262.167 4702.61 265.865 4700.31 268.458 4697.8 271.32 4693.78 272.797 4689.1 270.222 4686.68 268.407 4684.74 266.134 4684.6 262.739 4684.91 259.073 4686.81 255.914 4688.09 252.612 4689.81 248.057 4692.02 240.747 4692.64 234.579 4693.08 230.151 4693.61 225.701 4693.52 221.218 4693.43 215.295 4692.55 209.344 4691.27 203.608 4689.37 195.384 4686.06 186.908 4682.97 180.281 4677.37 168.29 4667.17 158.31 4656.63 150.605 4648.95 144.054 4630.77 142.372 4638 128.969 4639.99 125.737 4644.31 124.311 4648.2 125.632Z" fill="#A0A0A0" transform="matrix(1.00122 0 -0 1 -3970.46 72.2762)"/><path d="M4544.35 335.002C4544.35 388.054 4487.64 431.062 4417.69 431.062 4347.74 431.062 4291.04 388.054 4291.04 335.002 4291.04 281.95 4347.74 238.942 4417.69 238.942 4487.64 238.942 4544.35 281.95 4544.35 335.002Z" fill="#656565" transform="matrix(1.00122 0 -0 1 -3185.97 84.8524)"/><path d="M4289.42-335.445C4289.42-358.927 4295.89-377.963 4303.86-377.963 4311.84-377.963 4318.3-358.927 4318.3-335.445 4318.3-311.962 4311.84-292.926 4303.86-292.926 4295.89-292.926 4289.42-311.962 4289.42-335.445Z" fill="#A0A0A0" transform="matrix(1.00122 8.75297e-08 8.74228e-08 -1 -3185.97 84.8524)"/><path d="M4508.21 373.954C4508.21 394.629 4491.18 411.389 4470.17 411.389 4449.16 411.389 4432.13 394.628 4432.13 373.954 4432.13 353.279 4449.16 336.519 4470.17 336.519 4491.18 336.519 4508.21 353.279 4508.21 373.954Z" fill="#2B2B2B" transform="matrix(1.00122 0 -0 1 -3185.97 84.8524)"/><path d="M4404.17 373.707C4404.17 394.245 4387.21 410.894 4366.3 410.894 4345.38 410.894 4328.42 394.245 4328.42 373.707 4328.42 353.169 4345.38 336.519 4366.3 336.519 4387.21 336.519 4404.17 353.169 4404.17 373.707Z" fill="#2B2B2B" transform="matrix(1.00122 0 -0 1 -3185.97 84.8524)"/><path d="M4545.81 335.266C4545.81 358.748 4539.34 377.784 4531.37 377.784 4523.39 377.784 4516.93 358.748 4516.93 335.266 4516.93 311.783 4523.39 292.747 4531.37 292.747 4539.34 292.747 4545.81 311.783 4545.81 335.266Z" fill="#A0A0A0" transform="matrix(1.00122 0 -0 1 -3185.97 84.8524)"/><path d="M4551.53 335.01C4551.53 357.305 4544.67 375.379 4536.21 375.379 4527.75 375.379 4520.89 357.305 4520.89 335.01 4520.89 312.715 4527.75 294.642 4536.21 294.642 4544.67 294.642 4551.53 312.715 4551.53 335.01Z" fill="#2B2B2B" transform="matrix(1.00122 0 -0 1 -3185.97 84.8524)"/><path d="M4283.66-335.189C4283.66-357.484 4290.52-375.558 4298.98-375.558 4307.44-375.558 4314.3-357.484 4314.3-335.189 4314.3-312.894 4307.44-294.821 4298.98-294.821 4290.52-294.821 4283.66-312.894 4283.66-335.189Z" fill="#2B2B2B" transform="matrix(1.00122 8.75297e-08 8.74228e-08 -1 -3185.97 84.8524)"/><path d="M4415.64 272.064C4415.64 272.064 4415.83 319.624 4415.79 343.405 4415.75 372.624 4415.44 431.06 4415.44 431.06L4419.16 431.021C4419.16 431.021 4419.67 372.17 4419.55 342.746 4419.43 319.169 4418.66 272.019 4418.66 272.019 4418.66 272.019 4438.37 272.978 4454.06 268.389 4461.77 266.137 4472.92 262.662 4471.64 256.863 4469.2 245.777 4435.28 243.689 4436.01 243.519 4436.01 243.519 4445.07 246.202 4451.58 250.243 4455.8 252.881 4458.28 256.902 4458.86 258.356 4460.37 262.018 4451.5 263.898 4446.55 265.377 4437.68 268.028 4417.42 268.271 4417.42 268.271 4417.42 268.199 4394.53 268.19 4383.34 263.914 4379.97 262.636 4376.99 261.277 4376.79 259.044 4376.06 249.341 4401.89 242.6 4401.42 243.391 4401.54 243.445 4364.55 245.397 4363.55 258.055 4363.2 262.671 4372.72 265.681 4378.03 267.335 4395.34 272.745 4415.99 271.961 4415.64 272.064Z" fill="#2B2B2B" transform="matrix(1.00122 0 -0 1 -3185.97 84.8524)"/><path d="M4423.73 245.034C4423.73 245.034 4421.72 245.734 4417.73 245.886 4414.28 246.079 4411.73 244.859 4411.73 244.859L4415.17 204.657C4414.59 205.517 4406.07 201.104 4406.19 194.878 4406.3 188.434 4411.38 183.264 4417.5 183.261 4423.66 183.257 4428.92 188.367 4429.27 194.057 4429.7 200.33 4423.23 204.639 4420.33 204.732Z" fill="#2B2B2B" transform="matrix(1.00122 0 -0 1 -3185.97 84.8524)"/><path d="M4396.18 373.707C4396.18 389.862 4382.8 402.958 4366.3 402.958 4349.79 402.958 4336.41 389.862 4336.41 373.707 4336.41 357.552 4349.79 344.456 4366.3 344.456 4382.8 344.456 4396.18 357.552 4396.18 373.707Z" fill="#A0A0A0" transform="matrix(1.00122 0 -0 1 -3185.97 84.8524)"/><path d="M4377.74 353.182C4377.74 355.845 4372.65 358.004 4366.37 358.004 4360.09 358.004 4355 355.845 4355 353.182 4355 350.519 4360.09 348.361 4366.37 348.361 4372.65 348.361 4377.74 350.519 4377.74 353.182Z" fill="#FFFFFF" transform="matrix(1.00122 0 -0 1 -3185.97 84.8524)"/><path d="M4500.06 373.954C4500.06 390.109 4486.68 403.205 4470.17 403.205 4453.67 403.205 4440.28 390.109 4440.28 373.954 4440.28 357.799 4453.67 344.703 4470.17 344.703 4486.68 344.703 4500.06 357.799 4500.06 373.954Z" fill="#A0A0A0" transform="matrix(1.00122 0 -0 1 -3185.97 84.8524)"/><path d="M4481.47 353.182C4481.47 355.845 4476.38 358.004 4470.09 358.004 4463.81 358.004 4458.72 355.845 4458.72 353.182 4458.72 350.519 4463.81 348.361 4470.09 348.361 4476.37 348.361 4481.47 350.519 4481.47 353.182Z" fill="#FFFFFF" transform="matrix(1.00122 0 -0 1 -3185.97 84.8524)"/><path d="M4458.61 358.269C4458.61 359.988 4456.97 361.381 4454.95 361.381 4452.93 361.381 4451.29 359.988 4451.29 358.269 4451.29 356.551 4452.93 355.157 4454.95 355.157 4456.97 355.157 4458.61 356.551 4458.61 358.269Z" fill="#FFFFFF" transform="matrix(1.00122 0 -0 1 -3185.97 84.8524)"/><path d="M4355.12 358.079C4355.12 359.741 4353.48 361.089 4351.46 361.089 4349.44 361.089 4347.8 359.741 4347.8 358.079 4347.8 356.416 4349.44 355.068 4351.46 355.068 4353.48 355.068 4355.12 356.416 4355.12 358.079Z" fill="#FFFFFF" transform="matrix(1.00122 0 -0 1 -3185.97 84.8524)"/><path d="M342.51-1624.06C350.319-1624.06 356.648-1617.73 356.648-1609.92L356.648-1606.17C356.648-1598.37 350.319-1592.04 342.51-1592.04L221.929-1592.04C214.121-1592.04 207.791-1598.36 207.791-1606.17L207.791-1609.92C207.791-1617.73 214.121-1624.06 221.929-1624.06Z" fill="#2B2B2B" transform="matrix(1.00122 0 -0 1 1267.57 1951.99)"/><path d="M323.896-1640.02C329.293-1640.02 333.668-1635.64 333.668-1630.25L333.668-1627.65C333.668-1622.26 329.293-1617.88 323.896-1617.88L240.545-1617.88C235.147-1617.88 230.772-1622.26 230.772-1627.65L230.772-1630.25C230.772-1635.64 235.147-1640.02 240.545-1640.02Z" fill="#2B2B2B" transform="matrix(1.00122 0 -0 1 1267.57 1951.99)"/><path d="M302.488-1696.38C302.488-1685.18 293.414-1676.11 282.22-1676.11 271.026-1676.11 261.951-1685.18 261.951-1696.38 261.951-1707.57 271.026-1716.64 282.22-1716.64 293.414-1716.64 302.488-1707.57 302.488-1696.38Z" fill="#2B2B2B" transform="matrix(1.00122 0 -0 1 1267.57 1951.99)"/><path d="M284.664-1705.04C287.352-1705.04 289.531-1702.86 289.531-1700.17L289.531-1616.45C289.531-1613.76 287.352-1611.58 284.664-1611.58L279.775-1611.58C277.087-1611.58 274.908-1613.76 274.908-1616.45L274.908-1700.17C274.908-1702.86 277.087-1705.04 279.775-1705.04Z" fill="#2B2B2B" transform="matrix(1.00122 0 -0 1 1267.57 1951.99)"/><path d="M285.472-1426.77C310.503-1426.77 330.794-1406.48 330.794-1381.45L330.794-1369.43C330.794-1344.4 310.503-1324.1 285.472-1324.1L171.702-1324.1C146.671-1324.1 126.38-1344.4 126.38-1369.43L126.38-1381.45C126.38-1406.48 146.671-1426.77 171.702-1426.77Z" fill="#2B2B2B" transform="matrix(1.00122 0 -0 1 1297.37 1784.11)"/><path d="M331.133-1426.77C356.164-1426.77 376.456-1406.48 376.456-1381.45L376.456-1369.43C376.456-1344.4 356.164-1324.1 331.133-1324.1L217.364-1324.1C192.333-1324.1 172.041-1344.4 172.041-1369.43L172.041-1381.45C172.041-1406.48 192.333-1426.77 217.364-1426.77Z" fill="#2B2B2B" transform="matrix(1.00122 0 -0 1 1297.37 1784.11)"/><path d="M309.15-1426.77C334.181-1426.77 354.473-1406.48 354.473-1381.45L354.473-1369.43C354.473-1344.4 334.181-1324.1 309.15-1324.1L195.381-1324.1C170.35-1324.1 150.058-1344.4 150.058-1369.43L150.058-1381.45C150.058-1406.48 170.35-1426.77 195.381-1426.77Z" fill="#193F3B" transform="matrix(1.00122 0 -0 1 1297.37 1784.11)"/><path d="M252.341-1235.43C196.381-1235.46 150.812-1279.24 150.012-1333.74L149.912-1333.74 149.912-1421.82C149.912-1430.63 156.999-1437.72 165.801-1437.72L339.118-1437.72C347.921-1437.72 355.007-1430.63 355.007-1421.82L355.007-1333.74 354.693-1333.74C353.893-1279.23 308.311-1235.45 252.341-1235.43Z" fill="#656565" transform="matrix(1.00122 0 -0 1 1297.37 1784.11)"/><path d="M192.805-1323.53C200.948-1288.12 232.006-1285.66 250.565-1318.04 269.503-1284.33 299.615-1288.88 307.19-1324.1" stroke="#A0A0A0" stroke-width="6.81766" stroke-linecap="round" stroke-linejoin="round" stroke-miterlimit="10" fill="none" transform="matrix(1.00122 0 -0 1 1297.37 1784.11)"/><path d="M-372.443-931.196C-372.443-918.264-382.926-907.781-395.858-907.781-408.79-907.781-419.273-918.264-419.273-931.196-419.273-944.128-408.79-954.611-395.858-954.611-382.926-954.611-372.443-944.128-372.443-931.196Z" fill="#2B2B2B" transform="matrix(1.00122 0 -0 1 1895.22 1343.33)"/><path d="M-388.519-936.61C-388.519-929.276-394.465-923.33-401.799-923.33-409.134-923.33-415.08-929.276-415.08-936.61-415.08-943.945-409.134-949.891-401.799-949.891-394.465-949.891-388.519-943.945-388.519-936.61Z" fill="#FFFFFF" transform="matrix(1.00122 0 -0 1 1895.22 1343.33)"/><path d="M-390.965-913.547C-390.965-911.134-392.921-909.179-395.333-909.179-397.746-909.179-399.702-911.134-399.702-913.547-399.702-915.96-397.746-917.916-395.333-917.916-392.921-917.916-390.965-915.96-390.965-913.547Z" fill="#FFFFFF" transform="matrix(1.00122 0 -0 1 1895.22 1343.33)"/><path d="M-257.464-931.196C-257.464-918.264-267.947-907.781-280.879-907.781-293.81-907.781-304.294-918.264-304.294-931.196-304.294-944.128-293.81-954.611-280.879-954.611-267.947-954.611-257.464-944.128-257.464-931.196Z" fill="#2B2B2B" transform="matrix(1.00122 0 -0 1 1878.3 1343.33)"/><path d="M-273.542-936.61C-273.542-929.276-279.487-923.33-286.822-923.33-294.157-923.33-300.102-929.276-300.102-936.61-300.102-943.945-294.157-949.891-286.822-949.891-279.487-949.891-273.542-943.945-273.542-936.61Z" fill="#FFFFFF" transform="matrix(1.00122 0 -0 1 1878.3 1343.33)"/><path d="M-275.99-913.547C-275.99-911.134-277.946-909.179-280.358-909.179-282.771-909.179-284.727-911.134-284.727-913.547-284.727-915.96-282.771-917.916-280.358-917.916-277.946-917.916-275.99-915.96-275.99-913.547Z" fill="#FFFFFF" transform="matrix(1.00122 0 -0 1 1878.3 1343.33)"/></g></g></g></svg>